<svg width="242" height="100" viewBox="0 0 242 220" fill="none" xmlns="http://www.w3.org/2000/svg">
<path d="M25.3134 124.161C25.4046 124.305 25.4958 124.45 25.587 124.594C25.6884 124.815 25.7897 125.036 25.8809 125.181C25.9822 125.402 26.0734 125.546 26.1646 125.69C26.1747 125.767 26.2558 125.835 26.2659 125.912C26.3571 126.056 26.3672 126.133 26.4483 126.2C28.4645 129.999 30.8255 133.675 33.4906 137.467C35.8009 141.305 38.395 145.106 41.2629 148.793C41.5162 149.073 41.6986 149.361 41.952 149.641C42.7323 150.632 43.5025 151.547 44.3537 152.529C45.134 153.521 45.9853 154.503 46.8974 155.399C47.1508 155.678 47.3231 155.89 47.5663 156.093C48.752 157.422 49.9276 158.674 51.1843 159.994C51.6099 160.485 52.0964 160.89 52.5221 161.381C53.1099 162.007 53.6875 162.556 54.3463 163.173C55.4206 164.204 56.5659 165.226 57.6401 166.257C57.7212 166.324 57.8834 166.459 57.9645 166.527C58.2077 166.729 58.3699 166.864 58.6131 167.066C60.0016 168.291 61.38 169.438 62.7584 170.585L62.9205 170.72C63.0016 170.788 63.1638 170.923 63.2449 170.99C63.4881 171.193 63.6503 171.328 63.8834 171.453C65.4138 172.659 66.9443 173.864 68.4747 175.07C75.5087 180.24 83.0598 184.952 91.0877 188.898C91.1688 188.965 91.3208 189.024 91.3918 189.014C91.777 189.198 92.1621 189.382 92.6284 189.633C93.0136 189.817 93.3177 189.933 93.7028 190.117C102.937 194.451 112.698 197.856 122.795 199.966C123.018 200.014 123.17 200.073 123.393 200.121C124.062 200.268 124.65 200.347 125.319 200.493C126.059 200.63 126.87 200.758 127.61 200.895C127.833 200.944 127.975 200.925 128.198 200.974C128.269 200.965 128.34 200.955 128.421 201.023C136.47 202.386 144.681 202.79 152.913 202.254C154.92 202.146 156.989 201.952 158.976 201.69C160.892 201.438 162.798 201.109 164.552 200.721C166.437 200.239 168.323 199.756 170.047 199.138C193.883 190.451 199.405 164.945 204.938 138.423C205.994 133.281 207.121 128.131 208.318 122.97C210.927 112.075 214.083 101.498 219.164 92.3872C226.662 72.5626 225.998 54.3596 218.024 40.949C217.852 40.7372 215.926 38.724 214.639 36.0794C206.704 26.2593 194.156 19.7822 177.439 18.3874C164.078 17.2543 119.059 9.81511 79.9352 19.7338C75.3932 20.879 70.8816 22.2545 66.5523 23.9188C61.8676 27.8184 57.6893 33.371 57.9608 40.9172C57.9505 41.3875 58.0112 41.8485 58.0719 42.3095C58.4662 45.8532 57.2389 48.047 54.8765 49.296C49.888 51.985 39.8217 50.6527 30.1504 50.6753C21.5638 50.7114 13.2608 51.8045 8.90998 57.6925C-1.48511 71.4109 20.0245 114.149 25.3134 124.161Z" fill="#F1EEFA"/>
<ellipse cx="116.674" cy="173.316" rx="85.1744" ry="14.6836" fill="#D6CBF1"/>
<path d="M71.3008 48.7498C71.3008 43.2269 75.7779 38.7498 81.3008 38.7498H186.677V170.724H81.3008C75.7779 170.724 71.3008 166.247 71.3008 160.724V48.7498Z" fill="#87D720"/>
<rect x="162.387" y="38.7498" width="24.2898" height="131.974" fill="#5A8F15"/>
<rect x="161.98" y="46.4412" width="16.1932" height="116.591" fill="white"/>
<path d="M190.129 105.952L166.219 105.952L166.219 91.1709L190.129 91.1709L181.217 98.5614L190.129 105.952Z" fill="#FF97C9"/>
<rect x="164.902" y="156.758" width="103.434" height="2.63139" transform="rotate(-90 164.902 156.758)" fill="#E3DCF5"/>
<rect x="170.078" y="156.758" width="40.2805" height="2.63139" transform="rotate(-90 170.078 156.758)" fill="#E3DCF5"/>
<rect x="65.3984" y="56.8308" width="87.4432" height="111.733" transform="rotate(5.26986 65.3984 56.8308)" fill="#9075D9"/>
<rect x="52.3672" y="70.0164" width="86.4432" height="110.733" fill="white" stroke="#9075D9"/>
<rect x="65.2383" y="88.6326" width="15.5" height="15.5" fill="#F1EEFA"/>
<rect x="93.4375" y="90.8826" width="32.5" height="3.25" fill="#9075D9"/>
<rect x="93.4375" y="98.6326" width="32.5" height="3.25" fill="#9075D9"/>
<rect x="65.2383" y="115.883" width="15.5" height="15.5" fill="#F1EEFA"/>
<rect x="93.4375" y="118.133" width="32.5" height="3.25" fill="#9075D9"/>
<rect x="93.4375" y="125.883" width="32.5" height="3.25" fill="#9075D9"/>
<rect x="65.2383" y="143.133" width="15.5" height="15.5" fill="#F1EEFA"/>
<rect x="93.4375" y="145.383" width="32.5" height="3.25" fill="#9075D9"/>
<rect x="93.4375" y="153.133" width="32.5" height="3.25" fill="#9075D9"/>
<path d="M66.793 121.266L71.7351 126.208L79.1851 118.758" stroke="#9075D9" stroke-width="3" stroke-linecap="square"/>
<path d="M66.793 148.516L71.7351 153.458L79.1851 146.008" stroke="#9075D9" stroke-width="3" stroke-linecap="square"/>
<path d="M66.793 94.6903L71.7351 99.6324L79.1851 92.1824" stroke="#9075D9" stroke-width="3" stroke-linecap="square"/>
</svg>
