<svg width="163" height="100" viewBox="0 0 137 74" fill="none" xmlns="http://www.w3.org/2000/svg">
<path d="M134.673 34.6577C134.825 34.6577 134.957 34.7177 135.069 34.8377L136.185 36.0497C135.481 36.8977 134.617 37.5537 133.593 38.0177C132.569 38.4737 131.345 38.7017 129.921 38.7017C128.657 38.7017 127.513 38.4857 126.489 38.0537C125.473 37.6137 124.605 37.0057 123.885 36.2297C123.165 35.4457 122.609 34.5137 122.217 33.4337C121.833 32.3537 121.641 31.1657 121.641 29.8697C121.641 28.5737 121.845 27.3857 122.253 26.3057C122.669 25.2177 123.249 24.2857 123.993 23.5097C124.745 22.7257 125.641 22.1177 126.681 21.6857C127.729 21.2537 128.881 21.0377 130.137 21.0377C131.385 21.0377 132.485 21.2417 133.437 21.6497C134.397 22.0497 135.229 22.5857 135.933 23.2577L135.009 24.5657C134.945 24.6537 134.869 24.7297 134.781 24.7937C134.693 24.8577 134.573 24.8897 134.421 24.8897C134.261 24.8897 134.077 24.8177 133.869 24.6737C133.669 24.5217 133.409 24.3577 133.089 24.1817C132.777 23.9977 132.381 23.8337 131.901 23.6897C131.429 23.5377 130.837 23.4617 130.125 23.4617C129.301 23.4617 128.545 23.6057 127.857 23.8937C127.169 24.1817 126.577 24.6017 126.081 25.1537C125.585 25.7057 125.197 26.3777 124.917 27.1697C124.645 27.9617 124.509 28.8617 124.509 29.8697C124.509 30.8857 124.653 31.7937 124.941 32.5937C125.229 33.3857 125.625 34.0577 126.129 34.6097C126.633 35.1537 127.225 35.5697 127.905 35.8577C128.585 36.1457 129.317 36.2897 130.101 36.2897C130.581 36.2897 131.009 36.2657 131.385 36.2177C131.769 36.1617 132.121 36.0777 132.441 35.9657C132.761 35.8457 133.061 35.6977 133.341 35.5217C133.629 35.3457 133.913 35.1297 134.193 34.8737C134.353 34.7297 134.513 34.6577 134.673 34.6577Z" fill="#6088E0"/>
<path d="M100.641 73.0484L92.4134 58.7984L108.868 58.7984L100.641 73.0484Z" fill="#87D720"/>
<rect x="45.1406" y="31.9224" width="76.5" height="34.5928" rx="10" fill="#87D720"/>
<rect x="108.391" y="44.1187" width="3" height="50" transform="rotate(90 108.391 44.1187)" fill="white"/>
<rect x="99.8633" y="51.3179" width="3" height="32.9427" transform="rotate(90 99.8633 51.3179)" fill="white"/>
<circle cx="33.8906" cy="31.9224" r="26.25" fill="#FF97C9"/>
<path d="M6.62485 54.3232L12.8701 39.1L22.9312 52.1202L6.62485 54.3232Z" fill="#FF97C9"/>
<circle cx="23.3906" cy="31.9224" r="2" fill="white"/>
<circle cx="33.8906" cy="31.9224" r="2" fill="white"/>
<circle cx="44.3906" cy="31.9224" r="2" fill="white"/>
<path d="M105.111 11.5661L102.735 5.25418C102.543 4.76618 102.347 4.14618 102.147 3.39418C102.059 3.77018 101.963 4.11818 101.859 4.43818C101.755 4.75018 101.659 5.02618 101.571 5.26618L99.1949 11.5661H105.111ZM110.427 18.0461H108.255C108.007 18.0461 107.807 17.9861 107.655 17.8661C107.503 17.7381 107.387 17.5821 107.307 17.3981L105.867 13.5821H98.4269L96.9869 17.3981C96.9229 17.5581 96.8109 17.7061 96.6509 17.8421C96.4909 17.9781 96.2909 18.0461 96.0509 18.0461H93.8789L100.731 0.766174H103.575L110.427 18.0461Z" fill="#6088E0"/>
<path d="M71.8283 19.3053C72.3214 19.3053 72.7365 19.2491 73.0736 19.1367C73.4169 19.0181 73.6947 18.8589 73.9069 18.6592C74.1254 18.4594 74.2815 18.2254 74.3751 17.9569C74.475 17.6823 74.5249 17.3889 74.5249 17.0768C74.5249 16.4401 74.3065 15.9407 73.8695 15.5786C73.4388 15.2104 72.7553 15.0262 71.8189 15.0262H69.1129V19.3053H71.8283ZM69.1129 9.26773V13.4812H71.3039C72.2403 13.4812 72.9394 13.3002 73.4013 12.9382C73.8633 12.5761 74.0942 12.0549 74.0942 11.3745C74.0942 10.6317 73.8757 10.0948 73.4388 9.76399C73.0081 9.43315 72.3308 9.26773 71.4069 9.26773H69.1129ZM71.4069 7.55426C72.2684 7.55426 73.0049 7.63853 73.6167 7.80707C74.2284 7.96937 74.7309 8.20343 75.1242 8.5093C75.5174 8.81517 75.8046 9.1897 75.9856 9.6329C76.1729 10.0699 76.2665 10.563 76.2665 11.1123C76.2665 11.4307 76.2166 11.7397 76.1167 12.0393C76.0231 12.3327 75.8733 12.6105 75.6673 12.8726C75.4675 13.1286 75.2147 13.3595 74.9088 13.5655C74.603 13.7715 74.2409 13.9432 73.8227 14.0805C75.7328 14.4862 76.6879 15.5006 76.6879 17.1236C76.6879 17.6979 76.5786 18.2254 76.3601 18.706C76.1479 19.1804 75.8358 19.5924 75.4238 19.942C75.0181 20.2853 74.5156 20.5537 73.9163 20.7472C73.3171 20.9407 72.6335 21.0375 71.8657 21.0375H66.9219V7.55426H71.4069Z" fill="#6088E0"/>
</svg>
