<svg width="143" height="100" viewBox="0 0 143 91" fill="none" xmlns="http://www.w3.org/2000/svg">
<rect x="0.710938" y="29.2191" width="135.5" height="30.7188" rx="5" fill="#D7F1F7"/>
<circle cx="20.0859" cy="44.5785" r="10.375" fill="#60C8E0"/>
<path d="M24.3359 44.8129L17.9609 48.4935L17.9609 41.1323L24.3359 44.8129Z" fill="#D7F1F7"/>
<rect x="39.4609" y="40.4379" width="3" height="13.1406" fill="#60C8E0"/>
<rect x="46.6602" y="40.4379" width="3" height="13.1406" fill="#60C8E0"/>
<rect x="53.8594" y="35.5785" width="3" height="18" fill="#60C8E0"/>
<rect x="61.0625" y="41.7191" width="3" height="11.8594" fill="#60C8E0"/>
<rect x="68.2617" y="40.5629" width="3" height="13.0156" fill="#60C8E0"/>
<rect x="75.4609" y="35.5785" width="3" height="18" fill="#60C8E0"/>
<rect x="82.6602" y="35.5785" width="3" height="18" fill="#60C8E0"/>
<rect x="97.0625" y="45.7035" width="3" height="7.875" fill="#60C8E0"/>
<rect x="111.461" y="38.4535" width="3" height="15.125" fill="#60C8E0"/>
<rect x="104.262" y="43.9535" width="3" height="9.625" fill="#60C8E0"/>
<rect x="89.8594" y="43.9535" width="3" height="9.625" fill="#60C8E0"/>
<rect x="119.961" y="50.0863" width="10" height="3.49219" fill="#60C8E0"/>
<circle cx="115.272" cy="85.5553" r="2.71741" transform="rotate(18.9727 115.272 85.5553)" fill="#9075D9"/>
<circle cx="104.05" cy="83.0348" r="2.71741" transform="rotate(18.9727 104.05 83.0348)" fill="#9075D9"/>
<rect x="108.172" y="65.4316" width="16.898" height="5.101" transform="rotate(11.7092 108.172 65.4316)" fill="#9075D9"/>
<path d="M122.242 72.4932L117.49 86.3168" stroke="#9075D9"/>
<path d="M111.02 69.9728L106.267 83.7964" stroke="#9075D9"/>
<circle cx="132.422" cy="13.4997" r="1.8681" transform="rotate(15.1206 132.422 13.4997)" fill="#FF97C9"/>
<rect x="135.543" y="1.5694" width="6.37899" height="3.50672" transform="rotate(7.85718 135.543 1.5694)" fill="#FF97C9"/>
<path d="M136.598 4.21857L133.976 13.9198" stroke="#FF97C9"/>
<circle cx="16.2966" cy="82.0114" r="1.8681" transform="rotate(15.1206 16.2966 82.0114)" fill="#FF97C9"/>
<rect x="19.418" y="70.0811" width="6.37899" height="3.50672" transform="rotate(7.85718 19.418 70.0811)" fill="#FF97C9"/>
<path d="M20.4727 72.7303L17.8513 82.4315" stroke="#FF97C9"/>
<circle cx="111.715" cy="30.6013" r="2.87641" transform="rotate(4.09303 111.715 30.6013)" fill="#6088E0"/>
<rect x="112.918" y="11.6521" width="9.82204" height="5.39946" transform="rotate(-3.17043 112.918 11.6521)" fill="#6088E0"/>
<path d="M115.293 15.3452L114.189 30.7788" stroke="#6088E0"/>
</svg>
