<svg width="99" height="100" viewBox="0 0 99 86" fill="none" xmlns="http://www.w3.org/2000/svg">
<path d="M86.3686 22.8174L88.1528 30.4415L94.4909 35.0391L87.7913 39.0919L85.3774 46.5406L79.4526 41.4213L71.6225 41.4273L74.6604 34.2106L72.2351 26.7656L80.0374 27.4247L86.3686 22.8174Z" fill="#EBF0FB"/>
<path d="M83.3148 2.86341L84.1729 6.53015L87.2212 8.74131L83.9991 10.6905L82.8381 14.2729L79.9886 11.8108L76.2228 11.8137L77.6839 8.34284L76.5174 4.76223L80.2699 5.07921L83.3148 2.86341Z" fill="#EBF0FB"/>
<path d="M5.4318 30.0629L7.77913 31.9004L10.7565 31.7539L9.73431 34.5541L10.7937 37.3405L7.81465 37.2337L5.49201 39.1023L4.67306 36.236L2.17814 34.6045L4.6511 32.9398L5.4318 30.0629Z" fill="#EBF0FB"/>
<rect x="28" y="8.5" width="41" height="16" rx="8" fill="#FF97C9"/>
<rect x="18.5" y="15" width="60" height="70.5" rx="7" fill="#6088E0"/>
<rect x="23.375" y="21" width="50.25" height="58.5" fill="#D7E1F7"/>
<rect x="67.4297" y="32.1191" width="3" height="37.859" transform="rotate(90 67.4297 32.1191)" fill="white"/>
<rect x="67.4297" y="47.5684" width="3" height="37.859" transform="rotate(90 67.4297 47.5684)" fill="white"/>
<rect x="67.4297" y="55.293" width="3" height="37.859" transform="rotate(90 67.4297 55.293)" fill="white"/>
<rect x="67.4297" y="63.0176" width="3" height="37.859" transform="rotate(90 67.4297 63.0176)" fill="white"/>
<rect x="54.5156" y="39.8438" width="3" height="24.9436" transform="rotate(90 54.5156 39.8438)" fill="white"/>
<circle cx="48.5" cy="9.5" r="5.5" fill="#FF97C9"/>
<circle cx="48.5" cy="9.5" r="3.0625" fill="white"/>
</svg>
