<svg xmlns="http://www.w3.org/2000/svg" width="370" height="255" viewBox="0 0 370 255" fill="none">
    <g clip-path="url(#clip0_1299:44929)">
        <rect x="17.5" y="169.281" width="334" height="147" rx="10" fill="#E5DBFF"/>
        <path d="M336.76 96.4542C336.873 95.6733 336.861 94.9335 336.725 94.2353C336.606 93.5243 336.365 92.8919 336.002 92.3379C335.641 91.7693 335.155 91.3005 334.544 90.9322C333.949 90.5516 333.233 90.3006 332.394 90.1799C330.703 89.9366 329.302 90.2296 328.195 91.0594C327.087 91.8891 326.276 93.1598 325.764 94.8722L336.76 96.4542ZM325.223 97.7174C325.1 98.9839 325.138 100.104 325.337 101.077C325.539 102.036 325.871 102.858 326.332 103.545C326.81 104.234 327.409 104.785 328.131 105.199C328.87 105.6 329.717 105.87 330.672 106.007C331.582 106.138 332.385 106.15 333.079 106.044C333.776 105.922 334.387 105.774 334.914 105.599C335.443 105.409 335.895 105.238 336.272 105.086C336.65 104.919 336.983 104.856 337.273 104.898C337.649 104.952 337.917 105.138 338.078 105.456L339.154 107.36C338.511 107.932 337.811 108.392 337.052 108.741C336.294 109.089 335.503 109.352 334.681 109.529C333.861 109.691 333.03 109.771 332.19 109.768C331.346 109.78 330.535 109.729 329.754 109.617C328.221 109.396 326.833 108.938 325.591 108.243C324.364 107.535 323.338 106.612 322.513 105.475C321.703 104.34 321.129 102.995 320.791 101.442C320.468 99.8895 320.445 98.1516 320.722 96.228C320.942 94.6951 321.386 93.2981 322.055 92.0358C322.738 90.7762 323.599 89.7189 324.636 88.865C325.688 88.0126 326.898 87.397 328.267 87.0177C329.651 86.6266 331.16 86.5486 332.794 86.7836C334.153 86.9791 335.378 87.3843 336.471 87.9992C337.565 88.5991 338.47 89.3864 339.186 90.36C339.902 91.3343 340.402 92.4763 340.686 93.7867C340.986 95.0846 341.023 96.5213 340.796 98.0975C340.692 98.8207 340.543 99.2938 340.348 99.5167C340.154 99.7398 339.847 99.8215 339.428 99.7611L325.223 97.7174Z" fill="#FF97C9"/>
        <path d="M291.828 149.631C292.414 152.419 292.498 155.067 292.079 157.575C291.656 160.066 290.791 162.312 289.484 164.316C288.194 166.315 286.487 168.02 284.365 169.431C282.255 170.821 279.79 171.812 276.968 172.405L262.752 175.393L254.844 137.754L269.06 134.766C271.882 134.173 274.54 134.096 277.034 134.536C279.54 134.955 281.787 135.821 283.772 137.132C285.776 138.439 287.473 140.156 288.866 142.284C290.255 144.394 291.243 146.843 291.828 149.631ZM285.583 150.943C285.129 148.783 284.425 146.902 283.47 145.301C282.532 143.697 281.39 142.417 280.044 141.464C278.715 140.506 277.21 139.876 275.527 139.575C273.841 139.255 272.031 139.299 270.098 139.706L262.023 141.403L267.855 169.163L275.93 167.465C277.863 167.059 279.54 166.379 280.958 165.426C282.377 164.473 283.502 163.29 284.333 161.878C285.178 160.445 285.708 158.814 285.925 156.985C286.155 155.136 286.041 153.121 285.583 150.943Z" fill="#88D6E8"/>
        <path d="M110.721 141.316C111.465 141.99 112.223 142.425 112.994 142.622C113.776 142.803 114.591 142.818 115.439 142.668C117.15 142.365 118.373 141.509 119.11 140.101C119.846 138.693 119.984 136.689 119.523 134.089C119.103 131.718 118.38 130.061 117.351 129.118C116.336 128.173 115.061 127.835 113.526 128.107C112.462 128.296 111.576 128.703 110.868 129.329C110.17 129.939 109.557 130.748 109.027 131.759L110.721 141.316ZM108.469 128.608C109.153 127.528 109.971 126.619 110.923 125.88C111.876 125.142 113.025 124.654 114.372 124.416C115.571 124.203 116.69 124.248 117.729 124.55C118.78 124.836 119.72 125.358 120.548 126.114C121.376 126.87 122.084 127.842 122.669 129.031C123.252 130.205 123.682 131.574 123.959 133.136C124.255 134.807 124.316 136.365 124.142 137.813C123.979 139.245 123.601 140.521 123.007 141.64C122.412 142.746 121.616 143.665 120.621 144.397C119.623 145.115 118.451 145.594 117.104 145.832C116.444 145.949 115.833 145.988 115.271 145.948C114.711 145.923 114.18 145.829 113.679 145.668C113.179 145.507 112.703 145.292 112.253 145.024C111.816 144.755 111.384 144.435 110.958 144.066L111.059 145.694C111.047 146.016 110.965 146.26 110.814 146.426C110.662 146.592 110.432 146.702 110.122 146.756L107.294 147.257L101.996 117.355L106.339 116.586L108.469 128.608Z" fill="#E5DBFF"/>
        <path d="M213.902 139.439C214.189 139.505 214.412 139.675 214.572 139.95L216.155 142.723C214.459 144.02 212.542 144.885 210.408 145.318C208.277 145.737 205.867 145.638 203.177 145.021C200.79 144.474 198.723 143.571 196.976 142.312C195.248 141.041 193.872 139.517 192.848 137.739C191.827 135.947 191.181 133.945 190.907 131.736C190.65 129.529 190.801 127.202 191.362 124.754C191.923 122.306 192.822 120.15 194.06 118.286C195.316 116.411 196.815 114.902 198.556 113.758C200.315 112.602 202.27 111.842 204.421 111.476C206.588 111.113 208.857 111.204 211.229 111.747C213.586 112.288 215.575 113.149 217.196 114.332C218.836 115.503 220.175 116.876 221.214 118.45L218.903 120.521C218.744 120.659 218.568 120.77 218.374 120.853C218.18 120.935 217.939 120.944 217.652 120.878C217.35 120.809 217.034 120.593 216.703 120.231C216.391 119.857 215.971 119.435 215.443 118.964C214.934 118.482 214.257 118 213.413 117.521C212.587 117.029 211.502 116.629 210.157 116.321C208.601 115.965 207.111 115.909 205.687 116.156C204.263 116.402 202.963 116.939 201.788 117.767C200.612 118.595 199.589 119.697 198.717 121.072C197.861 122.45 197.214 124.091 196.778 125.995C196.339 127.914 196.218 129.692 196.415 131.328C196.617 132.949 197.074 134.389 197.787 135.65C198.503 136.896 199.441 137.938 200.601 138.776C201.76 139.615 203.08 140.204 204.561 140.543C205.467 140.751 206.286 140.891 207.017 140.963C207.766 141.023 208.468 141.017 209.12 140.944C209.777 140.855 210.407 140.706 211.012 140.494C211.632 140.287 212.262 140.002 212.902 139.639C213.266 139.436 213.6 139.37 213.902 139.439Z" fill="#FF97C9"/>
        <path d="M47.4475 120.19L43.4957 104.339C43.1703 103.111 42.8721 101.564 42.6011 99.6988C42.2843 100.579 41.9561 101.389 41.6165 102.13C41.279 102.852 40.9709 103.489 40.6922 104.042L33.2154 118.538L47.4475 120.19ZM58.4249 137.267L53.1997 136.66C52.6031 136.591 52.1388 136.391 51.8066 136.06C51.4767 135.709 51.2413 135.301 51.1002 134.836L48.7027 125.252L30.8042 123.175L26.2734 131.955C26.0747 132.322 25.7639 132.647 25.341 132.929C24.9181 133.212 24.4179 133.319 23.8405 133.252L18.6154 132.646L39.9292 92.9798L46.771 93.774L58.4249 137.267Z" fill="#60C8E0"/>
        <path d="M341 157.34V298.281H184.5V157.34C195.788 162.221 228.678 164.817 256.5 166.281C284.322 167.746 323.306 163.441 341 157.34Z" fill="#D4F7FF"/>
        <path d="M28 157.34V298.281H184.5V157.34C173.212 162.221 140.322 164.817 112.5 166.281C84.6778 167.746 45.694 163.441 28 157.34Z" fill="#EDFCFF"/>
        <rect x="101" y="193.781" width="72" height="51.5" fill="#6088E0" stroke="#6088E0"/>
        <rect x="106.75" y="197.777" width="60.5" height="43.5103" fill="#EDFCFF"/>
        <path d="M105.059 242.156L126.09 219.025L147.122 242.156H105.059Z" fill="#6088E0" stroke="#6088E0"/>
        <path d="M134.046 242.094L151.682 225.468L169.319 242.094H134.046Z" fill="#6088E0" stroke="#6088E0"/>
        <circle cx="151.68" cy="209.406" r="5.125" fill="#6088E0" stroke="#6088E0"/>
        <rect x="38.25" y="193.781" width="54.25" height="4.00391" fill="#6088E0" stroke="#6088E0"/>
        <rect x="38.25" y="209.449" width="54.25" height="4.00391" fill="#6088E0" stroke="#6088E0"/>
        <rect x="38.25" y="225.117" width="54.25" height="4.00391" fill="#6088E0" stroke="#6088E0"/>
        <rect x="195.375" y="194.863" width="134.75" height="4.00391" fill="#6088E0" stroke="#6088E0"/>
        <rect x="195.375" y="226.191" width="86.125" height="4.00391" fill="#6088E0" stroke="#6088E0"/>
        <rect x="38.25" y="240.781" width="54.25" height="4.00391" fill="#6088E0" stroke="#6088E0"/>
        <rect x="195.375" y="210.527" width="134.75" height="4.00391" fill="#6088E0" stroke="#6088E0"/>
        <rect x="195.375" y="241.855" width="86.125" height="4.00391" fill="#6088E0" stroke="#6088E0"/>
    </g>
    <defs>
        <clipPath id="clip0_1299:44929">
            <rect width="370" height="273" fill="white" transform="translate(-0.5)"/>
        </clipPath>
    </defs>
</svg>
