<svg xmlns="http://www.w3.org/2000/svg" width="335" height="140" viewBox="0 0 335 140" fill="none">
    <ellipse cx="167.5" cy="111.337" rx="112.75" ry="17.146" fill="#D5C4FF"/>
    <path d="M138.55 105.729L134.644 83.5828L105.943 79.4141L77.2415 83.5828L73.3359 105.729H73.5176C73.3359 106.077 73.3359 106.424 73.3359 106.772C73.3359 111.722 87.959 115.717 105.943 115.717C123.926 115.717 138.55 111.722 138.55 106.772C138.55 106.424 138.459 106.077 138.368 105.729H138.55Z" fill="#FF97C9"/>
    <path d="M134.645 83.9359C134.645 86.5414 121.838 88.6258 105.943 88.6258C90.1396 88.6258 77.2422 86.5414 77.2422 83.9359C77.2422 81.3305 90.0488 79.2461 105.943 79.2461C121.838 79.2461 134.645 81.3305 134.645 83.9359Z" fill="#FF78B9"/>
    <path d="M195.194 106.789H194.414L198.494 90.3751L230.685 87.0574L262.876 90.3751L266.956 106.789H266.621L267.026 107.887C267.141 108.201 267.183 108.342 267.183 108.452C267.183 108.649 267.084 108.94 266.678 109.327C266.271 109.713 265.626 110.125 264.722 110.541C262.918 111.371 260.256 112.138 256.904 112.79C250.213 114.091 240.939 114.899 230.685 114.899C220.431 114.899 211.157 114.091 204.466 112.79C201.114 112.138 198.452 111.371 196.648 110.541C195.744 110.125 195.099 109.713 194.693 109.327C194.286 108.94 194.187 108.649 194.187 108.452C194.187 108.299 194.189 108.232 194.199 108.176C194.206 108.139 194.215 108.117 194.236 108.089L195.194 106.789Z" fill="#6088E0" stroke="#6088E0" stroke-width="1.63164"/>
    <path d="M263.529 89.9078C263.529 92.0234 248.874 93.7159 230.685 93.7159C212.599 93.7159 197.84 92.0234 197.84 89.9078C197.84 87.7921 212.495 86.0996 230.685 86.0996C248.874 86.0996 263.529 87.7921 263.529 89.9078Z" fill="#4870C8"/>
    <path d="M211.895 110.462L206.578 78.9263L167.499 72.9902L128.419 78.9263L123.102 110.462H123.349C123.102 110.956 123.102 111.451 123.102 111.946C123.102 118.995 143.012 124.684 167.499 124.684C191.985 124.684 211.895 118.995 211.895 111.946C211.895 111.451 211.772 110.956 211.648 110.462H211.895Z" fill="#9E86DE"/>
    <path d="M206.576 79.4222C206.576 83.1323 189.139 86.1003 167.497 86.1003C145.979 86.1003 128.418 83.1323 128.418 79.4222C128.418 75.7122 145.855 72.7441 167.497 72.7441C189.139 72.7441 206.576 75.7122 206.576 79.4222Z" fill="#9075D9"/>
    <path d="M208.389 13.1391L208.33 11.4219H194.651L186.538 20.5411C178.663 25.2783 179.61 48.4907 179.729 51.1554L179.847 53.2872L181.92 52.8135C193.407 50.3264 201.579 42.6284 205.665 30.5485C208.685 21.6069 208.389 13.4944 208.389 13.1391ZM182.749 48.6684C182.512 39.3123 184.229 25.8704 188.552 23.6203L188.848 23.4426L196.25 15.034H204.718C204.54 21.3701 201.994 42.9837 182.749 48.6684Z" fill="#60C8E0"/>
    <path d="M148.465 20.5411L140.412 11.4219H126.733L126.614 13.1391C126.614 13.4944 126.259 21.6069 129.279 30.5485C133.365 42.6284 141.537 50.3264 153.025 52.8135L155.097 53.2872L155.216 51.1554C155.393 48.4907 156.341 25.2783 148.465 20.5411ZM152.255 48.6684C143.136 46.0037 136.207 39.6084 132.773 29.4826C130.76 23.5018 130.345 17.8171 130.286 15.034H138.754L146.156 23.4426L146.452 23.6203C150.774 25.8704 152.492 39.3123 152.255 48.6684Z" fill="#60C8E0"/>
    <path d="M181.625 77.6211L179.908 70.5153L167.473 69.1533L155.038 70.5153L153.439 77.6803C153.38 77.7988 153.32 77.9172 153.32 78.0356C153.32 79.6345 159.656 80.9372 167.414 80.9372C175.23 80.9372 181.507 79.6345 181.507 78.0356C181.507 77.9172 181.448 77.7988 181.388 77.6803L181.625 77.6211Z" fill="#60C8E0"/>
    <path d="M179.91 70.515C179.91 71.9362 174.343 73.0613 167.474 73.0613C160.605 73.0613 155.039 71.9362 155.039 70.515C155.039 69.0938 160.605 67.9688 167.474 67.9688C174.343 67.9688 179.91 69.0938 179.91 70.515Z" fill="#4BB1C9"/>
    <path d="M171.499 54.4717H167.472H163.505C163.505 54.4717 166.762 64.4791 161.551 70.6967C161.551 70.6967 163.919 71.4665 167.532 71.4665C172.15 71.4665 173.749 70.6967 173.749 70.6967C168.538 64.4199 171.499 54.4717 171.499 54.4717Z" fill="#60C8E0"/>
    <path d="M188.967 11.5395C188.967 11.5395 179.907 8.51953 167.471 8.51953C155.036 8.51953 145.976 11.5395 145.976 11.5395C144.97 42.5092 155.628 61.1621 167.471 61.1621C179.374 61.1621 190.032 42.5092 188.967 11.5395Z" fill="#B0E4F0"/>
    <path d="M167.653 26.4014L170.579 30.8117L175.678 32.2318L172.387 36.3776L172.612 41.6656L167.653 39.8176L162.693 41.6656L162.918 36.3776L159.628 32.2318L164.727 30.8117L167.653 26.4014Z" fill="#60C8E0"/>
    <path d="M171.169 113.401H168.726V97.2097L163.828 99.0088V96.8026L170.788 94.1895H171.169V113.401Z" fill="white"/>
    <path d="M109.32 107.727H100.266V106.465L105.049 101.15C105.758 100.346 106.245 99.6948 106.511 99.1949C106.783 98.6888 106.919 98.1668 106.919 97.6289C106.919 96.9077 106.7 96.3161 106.264 95.8542C105.827 95.3923 105.245 95.1614 104.518 95.1614C103.644 95.1614 102.964 95.4113 102.477 95.9111C101.996 96.4046 101.756 97.0943 101.756 97.9801H100C100 96.7084 100.408 95.6802 101.224 94.8956C102.047 94.111 103.145 93.7188 104.518 93.7188C105.802 93.7188 106.818 94.0573 107.564 94.7343C108.311 95.4049 108.684 96.3002 108.684 97.4202C108.684 98.7805 107.817 100.4 106.084 102.279L102.382 106.294H109.32V107.727Z" fill="white"/>
    <path d="M232.076 104.326H233.334C234.123 104.314 234.745 104.106 235.198 103.701C235.65 103.297 235.875 102.752 235.875 102.064C235.875 100.52 235.106 99.7481 233.569 99.7481C232.845 99.7481 232.266 99.9562 231.832 100.372C231.404 100.782 231.189 101.328 231.189 102.01H229.516C229.516 100.966 229.896 100.101 230.655 99.4134C231.421 98.7198 232.392 98.373 233.569 98.373C234.812 98.373 235.786 98.7017 236.491 99.3591C237.197 100.017 237.549 100.93 237.549 102.1C237.549 102.673 237.362 103.228 236.988 103.765C236.621 104.302 236.116 104.703 235.477 104.968C236.201 105.197 236.758 105.577 237.151 106.108C237.549 106.639 237.748 107.287 237.748 108.053C237.748 109.235 237.362 110.173 236.59 110.866C235.818 111.56 234.815 111.907 233.578 111.907C232.341 111.907 231.335 111.572 230.556 110.903C229.784 110.233 229.398 109.35 229.398 108.252H231.081C231.081 108.945 231.307 109.5 231.759 109.916C232.212 110.333 232.818 110.541 233.578 110.541C234.385 110.541 235.005 110.33 235.432 109.907C235.86 109.485 236.074 108.879 236.074 108.089C236.074 107.323 235.84 106.735 235.369 106.325C234.898 105.915 234.22 105.704 233.334 105.692H232.076V104.326Z" fill="white"/>
    <path d="M308.947 15.0046L310.48 18.7551L314.093 20.588L311 23.205L310.373 27.208L306.929 25.0748L302.928 25.7159L303.892 21.7806L302.046 18.1738L306.087 17.8748L308.947 15.0046Z" fill="#FF97C9"/>
    <path d="M251.361 46.1159L252.841 47.5788L254.918 47.7163L253.984 49.5761L254.495 51.5936L252.438 51.2802L250.677 52.3895L250.339 50.3359L248.74 49.0041L250.589 48.0484L251.361 46.1159Z" fill="#9E86DE"/>
    <path d="M23.883 17.8953L26.4413 20.4236L30.0303 20.6613L28.4163 23.8756L29.2993 27.3624L25.7435 26.8207L22.7003 28.738L22.1166 25.1888L19.3528 22.887L22.5479 21.2351L23.883 17.8953Z" fill="#9E86DE"/>
    <path d="M313.429 73.061C311.272 72.4856 308.695 66.9479 307.676 64.251H311.452L316.666 71.4428L313.429 73.061Z" fill="#9E86DE"/>
    <path d="M304.642 119.05C304.717 117.372 308.37 114.586 310.188 113.403L310.796 116.177L306.352 121.167L304.642 119.05Z" fill="#60C8E0"/>
    <path d="M48.6554 81.0987L52.1444 85.8729C50.6345 82.7282 57.6794 80.2768 59.6722 78.3347C56.6157 74.9186 50.3049 79.411 48.6554 81.0987Z" fill="#FF97C9"/>
    <path d="M65.1646 40.6526L66.9497 42.4503L69.4759 42.6416L68.3178 44.8948L68.9165 47.3565L66.4157 46.9513L64.2595 48.2815L63.872 45.7778L61.9407 44.1382L64.202 42.9961L65.1646 40.6526Z" fill="white"/>
    <path d="M15.9205 117.12C16.5625 114.713 22.741 111.838 25.75 110.701L25.75 114.914L17.726 120.731L15.9205 117.12Z" fill="#60C8E0"/>
</svg>
