<svg width="569" height="484" viewBox="0 0 569 484" fill="none" xmlns="http://www.w3.org/2000/svg">
<g clip-path="url(#clip0)">
<path d="M53.5172 35.6353H305.591C313.543 35.6353 319.988 42.0853 319.988 50.043V449.544C319.988 457.501 313.543 463.951 305.591 463.951H53.5172C45.5654 463.951 39.1202 457.501 39.1202 449.544V50.043C39.1202 42.0853 45.5654 35.6353 53.5172 35.6353Z" fill="#E3DCF5"/>
<g style="mix-blend-mode:multiply">
<g style="mix-blend-mode:multiply">
<path d="M67.6744 57.2241H291.443C299.394 57.2241 305.84 63.6751 305.84 71.6319V434.741C305.84 442.698 299.394 449.149 291.443 449.149H67.6744C59.7236 449.149 53.2775 442.698 53.2775 434.741V71.6319C53.2775 63.6751 59.7236 57.2241 67.6744 57.2241Z" fill="#E3DCF5"/>
</g>
</g>
<path d="M75.399 59.2395H283.685C291.637 59.2395 298.082 65.6905 298.082 73.6473V425.958C298.082 433.914 291.637 440.365 283.685 440.365H75.399C67.4482 440.365 61.002 433.914 61.002 425.958V73.6473C61.002 65.6905 67.4482 59.2395 75.399 59.2395Z" fill="white"/>
<path d="M267.129 117.503H143.097" stroke="#9075D9" stroke-width="2" stroke-linecap="round" stroke-linejoin="round"/>
<path d="M103.782 107.604H112.576C120.527 107.604 126.973 114.054 126.973 122.012V130.812C126.973 138.769 120.527 145.22 112.576 145.22H103.782C95.83 145.22 89.3848 138.769 89.3848 130.812V122.012C89.3848 114.054 95.83 107.604 103.782 107.604V107.604Z" stroke="#9075D9" stroke-width="2" stroke-linecap="round" stroke-linejoin="round"/>
<path d="M267.129 202.629H143.097" stroke="#9075D9" stroke-width="2" stroke-linecap="round" stroke-linejoin="round"/>
<path d="M103.782 192.73H112.576C120.527 192.73 126.973 199.181 126.973 207.138V215.939C126.973 223.896 120.527 230.347 112.576 230.347H103.782C95.83 230.347 89.3848 223.896 89.3848 215.939V207.138C89.3848 199.181 95.83 192.73 103.782 192.73Z" stroke="#9075D9" stroke-width="2" stroke-linecap="round" stroke-linejoin="round"/>
<path d="M267.129 287.755H143.097" stroke="#9075D9" stroke-width="2" stroke-linecap="round" stroke-linejoin="round"/>
<path d="M103.782 277.856H112.576C120.527 277.856 126.973 284.307 126.973 292.264V301.064C126.973 309.022 120.527 315.472 112.576 315.472H103.782C95.83 315.472 89.3848 309.022 89.3848 301.064V292.264C89.3848 284.307 95.83 277.856 103.782 277.856Z" stroke="#9075D9" stroke-width="2" stroke-linecap="round" stroke-linejoin="round"/>
<path d="M267.129 372.881H143.097" stroke="#9075D9" stroke-width="2" stroke-linecap="round" stroke-linejoin="round"/>
<path d="M267.129 132.189H143.097" stroke="#9075D9" stroke-width="2" stroke-linecap="round" stroke-linejoin="round"/>
<path d="M267.129 217.315H143.097" stroke="#9075D9" stroke-width="2" stroke-linecap="round" stroke-linejoin="round"/>
<path d="M267.129 302.432H143.097" stroke="#9075D9" stroke-width="2" stroke-linecap="round" stroke-linejoin="round"/>
<path d="M267.129 387.558H143.097" stroke="#9075D9" stroke-width="2" stroke-linecap="round" stroke-linejoin="round"/>
<path d="M103.782 362.964H112.576C120.527 362.964 126.973 369.414 126.973 377.371V386.172C126.973 394.129 120.527 400.58 112.576 400.58H103.782C95.83 400.58 89.3848 394.129 89.3848 386.172V377.371C89.3848 369.414 95.83 362.964 103.782 362.964Z" stroke="#9075D9" stroke-width="2" stroke-linecap="round" stroke-linejoin="round"/>
<path d="M88.3977 131.199C90.7972 134.201 94.2285 137.575 98.0919 138.523C102.77 139.724 106.49 136.554 109.501 133.348C116.195 126.24 120.118 117.272 123.706 108.327C126.285 101.88 115.848 99.0696 113.292 105.457C111.292 110.755 108.781 115.846 105.794 120.658C104.594 122.519 102.687 125.988 100.659 126.937C99.8071 127.333 100.971 128.138 99.1709 126.937C97.9739 125.975 96.9166 124.852 96.0282 123.599C91.6366 118.208 84.0307 125.893 88.3977 131.235V131.199Z" fill="#FF97C9"/>
<path d="M139.106 19.3184H151.931V14.4077C151.931 10.5865 153.448 6.92184 156.148 4.21948C158.848 1.51748 162.51 -0.000488281 166.328 -0.000488281H192.783C196.601 -0.000488281 200.263 1.51748 202.963 4.21948C205.663 6.92139 207.18 10.5861 207.18 14.4077V19.3184H220.005C223.823 19.3184 227.485 20.8363 230.185 23.5383C232.885 26.2402 234.402 29.9045 234.402 33.7265V55.3381C234.402 59.1589 232.885 62.8235 230.185 65.5254C227.485 68.2273 223.823 69.7459 220.005 69.7459H139.106C135.288 69.7459 131.626 68.2273 128.926 65.5254C126.226 62.8235 124.709 59.1589 124.709 55.3381V33.7265C124.709 29.9048 126.226 26.2405 128.926 23.5383C131.626 20.8363 135.288 19.3184 139.106 19.3184ZM170.887 16.3768H188.212C189.237 16.3768 190.219 15.9695 190.944 15.2444C191.668 14.5194 192.074 13.536 192.074 12.5107C192.074 11.4854 191.668 10.502 190.944 9.77696C190.219 9.05194 189.237 8.64461 188.212 8.64461H170.887C169.863 8.64461 168.88 9.05194 168.156 9.77696C167.432 10.502 167.024 11.4854 167.024 12.5107C167.024 13.536 167.432 14.5194 168.156 15.2444C168.88 15.9695 169.863 16.3768 170.887 16.3768Z" fill="#9075D9"/>
<path d="M194.282 2.43725C196.336 3.21621 198.076 4.65136 199.232 6.52035C200.388 8.38925 200.896 10.5877 200.677 12.7748C200.389 15.044 196.79 15.0801 197.077 12.7748C197.3 11.3707 197.052 9.93256 196.373 8.68406C195.693 7.43546 194.622 6.4466 193.322 5.87108C191.198 5.01863 192.122 1.53676 194.282 2.40119V2.43725Z" fill="white"/>
<path d="M226.807 52.6721C227.191 55.938 226.652 59.2275 224 61.4126C220.929 63.9583 216.669 64.1745 212.855 64.3062C210.539 64.3788 210.539 60.7769 212.855 60.7042C215.674 60.608 218.997 60.6207 221.385 58.8915C223.46 57.4029 223.484 55.0134 223.208 52.6721C222.932 50.3307 226.544 50.3907 226.807 52.6721Z" fill="white"/>
<path d="M224.974 48.962C224.496 48.962 224.038 48.7722 223.701 48.4344C223.364 48.0965 223.174 47.6388 223.174 47.1611C223.174 46.6834 223.364 46.2256 223.701 45.8878C224.038 45.5499 224.496 45.3601 224.974 45.3601C225.451 45.3601 225.909 45.5499 226.246 45.8878C226.584 46.2256 226.773 46.6834 226.773 47.1611C226.773 47.6388 226.584 48.0965 226.246 48.4344C225.909 48.7722 225.451 48.962 224.974 48.962Z" fill="white"/>
<path opacity="0.24" d="M279.6 472.193C125.184 472.193 0.000488281 466.861 0.000488281 460.283C0.000488281 453.705 125.184 448.373 279.6 448.373C434.024 448.373 559.199 453.705 559.199 460.283C559.199 466.861 434.015 472.193 279.6 472.193Z" fill="#E3DCF5"/>
<g style="mix-blend-mode:multiply" opacity="0.4">
<g style="mix-blend-mode:multiply" opacity="0.4">
<path d="M479.953 423.312L504.141 454.133C504.141 454.133 484.777 460.244 474.039 454.133C463.301 448.022 448.088 419.074 448.088 419.074L479.953 423.312Z" fill="#FF97C9"/>
</g>
</g>
<path d="M494.951 376.451L527.344 417.392C527.344 417.392 525.664 408.988 524.872 406.695C524.08 404.401 497.278 372.368 497.278 372.368L494.951 376.451Z" fill="#F495B0"/>
<path d="M473.955 448.753C476.955 452.702 492.864 461.383 514.567 446.123C531.543 434.201 529.552 413.454 526.42 408.987L500.349 374.516L449 415.735L473.955 448.753Z" fill="#FF97C9"/>
<path d="M256.494 161.933L308.91 122.12L504.473 379.923C507.604 384.437 509.656 405.136 492.68 417.143C470.976 432.415 455.067 423.734 452.068 419.785L256.494 161.933Z" fill="#545454"/>
<mask id="mask0" style="mask-type:alpha" maskUnits="userSpaceOnUse" x="256" y="122" width="273" height="333">
<path d="M473.955 448.753C476.955 452.702 492.864 461.383 514.567 446.123C531.543 434.201 529.552 413.454 526.42 408.987L500.349 374.516L449 415.735L473.955 448.753Z" fill="#F66A8D"/>
<path d="M256.494 161.933L308.91 122.12L504.473 379.923C507.604 384.437 509.656 405.136 492.68 417.143C470.976 432.415 455.067 423.734 452.068 419.785L256.494 161.933Z" fill="#FFBD32"/>
</mask>
<g mask="url(#mask0)">
<path opacity="0.69" d="M272.956 86.5173L310.735 57.2332L568 389.627L530.222 418.911L272.956 86.5173Z" fill="#EFE5D3"/>
</g>
<mask id="mask1" style="mask-type:alpha" maskUnits="userSpaceOnUse" x="256" y="122" width="273" height="333">
<path d="M473.955 448.753C476.955 452.702 492.864 461.383 514.567 446.123C531.543 434.201 529.552 413.454 526.42 408.987L500.349 374.516L449 415.735L473.955 448.753Z" fill="#F66A8D"/>
<path d="M256.494 161.933L308.91 122.12L504.473 379.923C507.604 384.437 509.656 405.136 492.68 417.143C470.976 432.415 455.067 423.734 452.068 419.785L256.494 161.933Z" fill="#FFBD32"/>
</mask>
<g mask="url(#mask1)">
<g style="mix-blend-mode:multiply" opacity="0.4">
<g style="mix-blend-mode:multiply" opacity="0.4">
<path d="M209.139 151.614L246.918 122.33L504.184 454.723L466.405 484.006L209.139 151.614Z" fill="#545454"/>
</g>
</g>
</g>
<g style="mix-blend-mode:multiply" opacity="0.4">
<g style="mix-blend-mode:multiply" opacity="0.4">
<path d="M288.222 201.737L292.512 200.025C293.965 199.444 295.612 200.152 296.192 201.606L296.196 201.617C296.775 203.07 296.068 204.718 294.616 205.299L290.326 207.012C288.873 207.593 287.226 206.884 286.646 205.431L286.642 205.42C286.063 203.966 286.77 202.318 288.222 201.737Z" fill="#545454"/>
</g>
<g style="mix-blend-mode:multiply" opacity="0.4">
<path d="M290.855 206.106L294.766 204.543C296.218 203.963 297.865 204.671 298.445 206.124L298.45 206.136C299.03 207.589 298.322 209.237 296.87 209.818L292.958 211.38C291.506 211.96 289.859 211.252 289.279 209.799L289.275 209.788C288.695 208.335 289.403 206.685 290.855 206.106Z" fill="#545454"/>
</g>
<g style="mix-blend-mode:multiply" opacity="0.4">
<path d="M294.549 209.811L296.688 208.957C298.141 208.377 299.788 209.085 300.368 210.538L300.372 210.549C300.951 212.003 300.244 213.651 298.792 214.232L296.652 215.086C295.2 215.666 293.553 214.958 292.973 213.505L292.969 213.493C292.389 212.04 293.097 210.392 294.549 209.811Z" fill="#545454"/>
</g>
</g>
<path d="M287.007 201.739L291.297 200.027C292.749 199.446 294.397 200.154 294.976 201.608L294.981 201.619C295.561 203.072 294.853 204.72 293.401 205.3L289.111 207.014C287.659 207.595 286.012 206.886 285.432 205.433L285.427 205.422C284.848 203.968 285.555 202.32 287.007 201.739Z" fill="#FDDFC5"/>
<path d="M289.656 206.108L293.566 204.545C295.019 203.965 296.666 204.673 297.246 206.126L297.251 206.138C297.83 207.591 297.123 209.239 295.671 209.82L291.759 211.382C290.307 211.962 288.659 211.254 288.08 209.801L288.076 209.79C287.496 208.337 288.203 206.687 289.656 206.108Z" fill="#FDDFC5"/>
<path d="M293.35 209.813L295.489 208.959C296.941 208.378 298.588 209.087 299.168 210.54L299.172 210.551C299.752 212.005 299.044 213.653 297.592 214.234L295.453 215.088C294 215.668 292.353 214.96 291.774 213.507L291.77 213.495C291.19 212.042 291.897 210.394 293.35 209.813Z" fill="#FDDFC5"/>
<path d="M270.768 99.6299C287.565 108.155 307.084 119.489 308.908 122.119C312.027 126.633 314.091 147.332 297.115 159.339C275.399 174.61 259.491 165.93 256.491 161.98C254.763 159.698 249.904 136.911 247.085 117.556C266.149 116.487 270 105.069 270.768 99.6299Z" fill="#FDDFC5"/>
<path d="M310.824 134C310.824 134 298.661 117.888 269.794 105.752L269 98C269 98 303.06 118.725 308.793 121.654C314.526 124.584 310.824 134 310.824 134Z" fill="white" fill-opacity="0.5"/>
<path d="M247.082 117.503C245.031 103.372 244.071 91.0892 246.194 89.8885C248.006 88.8677 258.696 93.4904 270.766 99.6499C269.997 105.065 266.146 116.483 247.082 117.503Z" fill="#FF97C9"/>
<path d="M326.563 118.457L342.16 131.809" stroke="#9075D9" stroke-linecap="round" stroke-linejoin="round"/>
<path d="M359.388 450.651C359.388 450.651 357.312 451.347 358.283 455.814C358.595 457.219 361.655 457.963 363.19 458.095C366.454 459.296 391.265 455.766 396.399 455.766C401.534 455.766 400.395 452.164 400.467 450.783C400.539 449.403 398.931 448.67 398.931 448.67L359.388 450.651Z" fill="#E1E5E5"/>
<path d="M396.96 428.282C396.699 432.537 397.025 436.807 397.932 440.972C399.396 446.291 400.391 451.778 392.485 452.078L378.76 453.111C378.76 453.111 379 439.183 370.17 438.379C370.17 438.379 381.424 436.218 381.976 427.237L396.96 428.282Z" fill="#0E1B21"/>
<path d="M379.272 452.077C379.272 452.077 380.017 442.387 373.874 439.65C367.731 436.912 364.408 438.449 361.193 443.636C357.977 448.823 359.272 453.577 362.152 454.202C365.032 454.826 379.056 455.81 379.272 452.077Z" fill="#DCE0E0"/>
<path d="M389.562 428.727C389.562 428.727 388.11 437.299 383.672 438.703C379.232 440.108 375.573 438.764 374.386 436.939" stroke="black" stroke-miterlimit="10"/>
<path d="M377.811 433.059C377.811 433.059 384.446 431.606 386.773 439.242" stroke="#E8EEEF" stroke-width="2" stroke-linecap="round" stroke-linejoin="round"/>
<path d="M374.615 435.593C374.615 435.593 380.398 435.725 382.281 439.976" stroke="#E8EEEF" stroke-width="2" stroke-linecap="round" stroke-linejoin="round"/>
<path d="M374.128 456.127C374.128 456.127 372.052 456.811 373.036 461.278C373.335 462.683 376.395 463.427 377.943 463.571C382.285 464.567 405.753 461.602 411.139 461.23C416.262 460.882 415.135 457.628 415.219 456.259C415.303 454.89 413.671 454.134 413.671 454.134L374.128 456.127Z" fill="#E1E5E5"/>
<path d="M411.7 433.749C411.438 438.008 411.764 442.283 412.672 446.451C414.123 451.759 415.131 457.257 407.225 457.546L393.488 458.59C393.488 458.59 393.739 444.65 384.91 443.858C384.91 443.858 396.151 441.697 396.703 432.704L411.7 433.749Z" fill="#1F3B49"/>
<path d="M409.783 446.591L410.815 448.969H412.602L411.546 450.961L412.206 453.759L409.974 452.15L408.007 454.551L408.487 451.033L406.555 450.301L408.954 449.593L409.783 446.591Z" fill="white"/>
<path d="M394.003 457.544C394.003 457.544 394.747 447.854 388.617 445.129C382.485 442.403 379.15 443.928 375.935 449.115C372.72 454.302 374.016 459.056 376.882 459.668C379.75 460.281 393.787 461.29 394.003 457.544Z" fill="white"/>
<path d="M404.301 434.203C404.301 434.203 402.849 442.776 398.422 444.169C393.995 445.561 390.324 444.241 389.136 442.415" stroke="black" stroke-miterlimit="10"/>
<path d="M392.541 438.535C392.541 438.535 399.188 437.071 401.516 444.719" stroke="#E8EEEF" stroke-width="2" stroke-linecap="round" stroke-linejoin="round"/>
<path d="M389.345 441.06C389.345 441.06 395.128 441.192 397.023 445.454" stroke="#E8EEEF" stroke-width="2" stroke-linecap="round" stroke-linejoin="round"/>
<path d="M374.499 172.895L395.015 173.783C387.516 184.685 389.952 206.489 394.907 211.447C399.862 216.406 406.004 213.057 406.004 213.057C405.921 211.339 408.5 204.063 408.5 204.063L411.152 214.016H435.062V207.534L437.462 212.9L452.591 212.084C452.591 212.084 460.677 200.87 453.886 181.107C447.096 161.344 454.678 157.862 452.458 120.15C450.239 82.4377 391.439 83.0626 383.989 82.93C366.725 82.6302 340.51 88.1294 336.815 106.583C333.12 125.037 344.313 150.407 345.513 157.995C346.713 165.583 336.815 179.931 342.801 194.578C348.788 209.227 353.371 210.379 353.371 210.379C353.371 210.379 354.571 190.509 367.577 184.83C367.064 182.481 367.217 180.035 368.021 177.769C369.436 173.591 371.14 173.099 374.499 172.871" fill="#3F3D43"/>
<path d="M400.019 186.736C412.94 184.839 475.231 213.774 462.298 240.536C449.364 267.299 428.152 269.411 424.541 267.923C420.93 266.434 414.787 261.644 415.855 257.669C416.924 253.695 429.844 235.878 417.859 224.412C405.874 212.946 398.771 212.321 396.6 202.559C394.428 192.799 396.492 187.252 400.019 186.736Z" fill="#9075D9"/>
<path d="M352.301 157.573C355.444 165.798 339.776 180.734 354.472 205.443L377.531 186.738V161.812C377.531 161.812 350.021 151.595 352.301 157.573Z" fill="black"/>
<path d="M373.172 93.0272C371.109 92.7275 333.844 87.3364 338.56 123.224C343.166 158.223 339.1 123.44 339.1 123.44L373.172 93.0272Z" fill="black"/>
<path d="M394.173 175.029C394.173 175.029 398.612 171.715 407.646 171.907C416.68 172.099 428.534 169.242 429.542 164.92C430.549 160.598 400.256 166.12 396.333 169.446C392.41 172.772 393.933 175.629 393.933 175.629" fill="#DD837F"/>
<path d="M410.492 149.118C410.492 149.118 409.676 135.107 413.239 127.303C413.683 131.432 412.77 141.362 410.492 149.118Z" fill="black"/>
<path d="M368.508 175.983C367.224 178.648 366.805 183.416 367.573 184.856C368.34 186.296 399.966 186.741 399.966 186.741C399.966 186.741 403.457 174.903 395.443 173.858C388.478 173.009 381.46 172.688 374.447 172.898C370.943 172.981 369.444 174.038 368.508 175.983Z" fill="#9075D9"/>
<path d="M352.7 239.321C352.7 239.321 349.508 199.699 361.254 188.894C372.999 178.088 393.119 184.655 400.018 186.78C406.916 188.905 425.213 199.724 427.288 213.519C429.364 227.314 412.063 250.151 411.607 252.84C411.151 255.529 352.7 239.321 352.7 239.321Z" fill="#9075D9"/>
<path d="M422.598 232.963C422.598 232.963 421.89 222.853 413.947 217.955C406.004 213.056 394.103 243.168 394.103 243.168L413.492 251.212L422.598 232.927" fill="#9E86DE"/>
<path d="M414.902 249.511C407.344 244.852 361.945 230.036 347.476 242.043C347.476 242.043 347.296 247.697 347.476 249.99C347.656 252.284 344.129 287.619 352.071 325.235C360.014 362.851 377.134 404.022 379.065 410.025C379.065 410.025 380.133 417.445 391.423 416.916C395.881 419.475 400.933 420.812 406.072 420.794C414.722 420.794 416.306 415.679 416.306 415.679C416.306 415.679 435.958 360.558 435.022 315.35C434.362 281.432 411.566 259.592 411.566 259.592C411.566 259.592 416.198 250.299 414.902 249.507V249.511Z" fill="#9CDDEC"/>
<path d="M349.098 242.727C349.098 242.727 348.798 268.565 351.27 269.994C353.741 271.422 359.992 270.774 359.992 270.774" stroke="#60C8E0" stroke-miterlimit="10" stroke-linecap="round"/>
<path d="M351.139 247.985C350.278 247.985 349.58 246.528 349.58 244.731C349.58 242.935 350.278 241.478 351.139 241.478C352 241.478 352.699 242.935 352.699 244.731C352.699 246.528 352 247.985 351.139 247.985Z" fill="#60C8E0"/>
<path d="M411.57 259.592C411.57 259.592 384.805 247.333 354.75 249.806" stroke="#60C8E0" stroke-miterlimit="10" stroke-linecap="round"/>
<path d="M404.082 243.589L396.943 241.921C396.943 241.921 400.015 251.214 395.492 256.161L400.975 257.709C400.975 257.709 406.049 252.499 404.082 243.589Z" fill="#60C8E0" stroke="#60C8E0" stroke-linecap="round" stroke-linejoin="round"/>
<path d="M372.853 236.996C375.973 243.899 373.91 251.788 373.91 251.788L379.476 252.796C381.332 248.013 381.298 242.702 379.38 237.944L372.853 236.996Z" fill="#60C8E0" stroke="#60C8E0" stroke-linecap="round" stroke-linejoin="round"/>
<path d="M395.488 263.797C395.488 263.797 389.885 283.175 417.852 291.688" stroke="#60C8E0" stroke-miterlimit="10" stroke-linecap="round"/>
<path d="M409.054 262.317C409.054 262.317 409.582 259.604 409.054 258.595C409.054 258.595 406.079 260.996 405.852 262.317" stroke="#60C8E0" stroke-miterlimit="10" stroke-linecap="round"/>
<path d="M369.988 252.799C369.4 250.289 368.513 249.689 368.513 249.689" stroke="#60C8E0" stroke-miterlimit="10" stroke-linecap="round"/>
<path d="M361.249 277.738C365.124 279.263 366.131 282.78 367.247 288.16C368.363 293.538 389.406 398.615 391.41 416.916" stroke="#60C8E0" stroke-miterlimit="10" stroke-linecap="round"/>
<path d="M390.752 411.934C390.752 411.934 389.013 414.083 385.101 413.434C382.572 412.872 380.339 411.398 378.827 409.293L377.951 406.892C377.357 407.205 376.88 407.701 376.589 408.306C376.297 408.911 376.208 409.593 376.331 410.253C376.535 412.859 377.159 424.661 379.259 426.99C381.658 429.656 391.256 429.932 393.164 427.759C393.907 429.641 395.114 431.306 396.672 432.598C398.23 433.888 400.09 434.764 402.077 435.142C408.928 436.439 417.171 435.37 417.614 431.781C418.058 428.191 420.218 416.341 419.234 415.032C418.973 414.666 418.63 414.366 418.231 414.158C417.833 413.949 417.392 413.838 416.943 413.831C416.943 413.831 417.375 416.148 412.888 417.829C406.997 420.026 396.679 419.486 391.052 413.988L390.752 411.934Z" fill="#60C8E0"/>
<path d="M390.562 410.672L393.117 427.468" stroke="#60C8E0" stroke-miterlimit="10" stroke-linecap="round"/>
<path d="M374.662 173.658C374.662 173.658 375.682 168.507 368.795 167.186C361.909 165.865 335.658 158.445 335.563 143.449C335.563 135.381 339.077 128.357 338.586 123.231C337.71 113.962 342.449 94.9437 373.199 93.0347C373.199 93.0347 388.255 132.008 410.487 149.129C410.487 149.129 421.968 141.385 429.454 149.753C436.941 158.121 430.079 171.617 413.726 170.164C397.373 168.711 395.73 171.797 394.17 175.086C387.711 174.138 381.191 173.661 374.662 173.658Z" fill="#FDDFC5"/>
<path d="M424.578 159.254C423.714 155.652 417.295 152.146 412.509 157.032C412.509 157.032 419.095 156.432 418.927 160.286C418.759 164.14 414.392 162.075 414.392 162.075" stroke="#DD837F" stroke-miterlimit="10" stroke-linecap="round"/>
<path d="M387.285 127.639C385.281 129.872 376.487 123.148 377.615 121.372C378.742 119.594 388.509 126.282 387.285 127.639Z" fill="#E3DCF5"/>
<path d="M339.323 121.545C339.887 122.277 344.638 120.873 344.014 119.144C343.39 117.415 338.075 119.96 339.323 121.545Z" fill="#E3DCF5"/>
<path d="M366.523 139.591C366.523 139.591 364.124 146.386 354.526 143.913" stroke="#DD837F" stroke-miterlimit="10" stroke-linecap="round"/>
<g style="mix-blend-mode:multiply" opacity="0.24">
<g style="mix-blend-mode:multiply" opacity="0.24">
<path d="M382.513 161.104C374.734 161.104 368.427 156.046 368.427 149.806C368.427 143.566 374.734 138.508 382.513 138.508C390.291 138.508 396.598 143.566 396.598 149.806C396.598 156.046 390.291 161.104 382.513 161.104Z" fill="#FF97C9"/>
</g>
<g style="mix-blend-mode:multiply" opacity="0.24">
<path d="M337.254 132.178C338.533 132.344 339.781 132.691 340.962 133.211C346.588 135.708 349.54 141.363 347.56 145.866C346.036 149.311 342.065 151.064 337.758 150.584C336.364 148.459 335.603 145.981 335.563 143.44C335.661 139.631 336.229 135.848 337.254 132.178Z" fill="#FF97C9"/>
</g>
</g>
<path d="M342.798 132.48C341.812 132.48 341.011 131.093 341.011 129.383C341.011 127.672 341.812 126.285 342.798 126.285C343.786 126.285 344.586 127.672 344.586 129.383C344.586 131.093 343.786 132.48 342.798 132.48Z" fill="#9075D9"/>
<path d="M341.764 128.847C341.547 128.821 341.415 128.452 341.468 128.024C341.521 127.596 341.74 127.271 341.957 127.298C342.174 127.326 342.307 127.694 342.254 128.122C342.201 128.55 341.982 128.874 341.764 128.847Z" fill="white"/>
<path d="M375.951 137.211C374.513 137.211 373.347 135.459 373.347 133.297C373.347 131.135 374.513 129.384 375.951 129.384C377.389 129.384 378.555 131.135 378.555 133.297C378.555 135.459 377.389 137.211 375.951 137.211Z" fill="#9075D9"/>
<path d="M374.483 132.671C374.233 132.64 374.08 132.219 374.141 131.732C374.201 131.246 374.453 130.876 374.702 130.908C374.953 130.939 375.106 131.358 375.045 131.846C374.984 132.333 374.733 132.701 374.483 132.671Z" fill="white"/>
<g style="mix-blend-mode:darken" opacity="0.47">
<g style="mix-blend-mode:darken" opacity="0.47">
<path d="M358.856 132.478C358.791 135.109 359.253 137.726 360.214 140.176C361.175 142.625 362.616 144.857 364.453 146.74C366.289 148.624 368.483 150.121 370.906 151.143C373.329 152.165 375.932 152.692 378.562 152.692C381.191 152.692 383.794 152.165 386.217 151.143C388.64 150.121 390.835 148.624 392.672 146.74C394.507 144.857 395.949 142.625 396.91 140.176C397.871 137.726 398.333 135.109 398.267 132.478C398.267 121.588 389.425 115.501 378.568 114.865C361.759 113.868 358.856 121.588 358.856 132.478Z" fill="#9CDDEC"/>
</g>
<g style="mix-blend-mode:darken" opacity="0.47">
<path d="M325.452 127.174C325.452 137.055 332.158 145.075 340.448 145.075C348.739 145.075 355.445 137.055 355.445 127.174C355.445 117.293 348.715 111.77 340.448 111.193C327.66 110.293 325.452 117.293 325.452 127.174Z" fill="#9CDDEC"/>
</g>
</g>
<g style="mix-blend-mode:luminosity" opacity="0.57">
<g style="mix-blend-mode:luminosity" opacity="0.57">
<g style="mix-blend-mode:luminosity" opacity="0.57">
<path d="M333.764 118.428C332.648 119.812 331.928 121.473 331.681 123.234C331.433 124.996 331.668 126.791 332.36 128.429C333.284 130.531 330.188 132.367 329.252 130.242C328.24 128.055 327.836 125.634 328.083 123.235C328.33 120.837 329.219 118.55 330.656 116.615C332.036 114.79 335.155 116.615 333.764 118.428Z" fill="white"/>
</g>
<g style="mix-blend-mode:luminosity" opacity="0.57">
<path d="M367.659 123.014C365.176 124.755 365.512 129.186 365.644 131.803C365.763 134.12 362.164 134.12 362.044 131.803C361.84 127.589 362.044 122.558 365.848 119.905C367.744 118.56 369.543 121.682 367.659 123.014Z" fill="white"/>
</g>
<g style="mix-blend-mode:luminosity" opacity="0.57">
<path d="M332.521 136.374C332.043 136.374 331.586 136.184 331.248 135.846C330.911 135.508 330.721 135.051 330.721 134.573C330.721 134.095 330.911 133.637 331.248 133.299C331.586 132.962 332.043 132.772 332.521 132.772C332.998 132.772 333.455 132.962 333.793 133.299C334.131 133.637 334.32 134.095 334.32 134.573C334.32 135.051 334.131 135.508 333.793 135.846C333.455 136.184 332.998 136.374 332.521 136.374Z" fill="white"/>
</g>
<g style="mix-blend-mode:luminosity" opacity="0.57">
<path d="M363.583 138.517C363.106 138.517 362.648 138.327 362.311 137.99C361.973 137.652 361.784 137.194 361.784 136.716C361.784 136.239 361.973 135.781 362.311 135.443C362.648 135.105 363.106 134.915 363.583 134.915C364.061 134.915 364.519 135.105 364.856 135.443C365.193 135.781 365.383 136.239 365.383 136.716C365.383 137.194 365.193 137.652 364.856 137.99C364.519 138.327 364.061 138.517 363.583 138.517Z" fill="white"/>
</g>
</g>
</g>
<path d="M413.187 147.656L414.363 147.079L398.454 133.463L397.675 134.376L413.187 147.656Z" fill="#9075D9"/>
<path d="M358.852 132.48C358.787 135.111 359.249 137.728 360.21 140.178C361.171 142.627 362.612 144.859 364.449 146.742C366.285 148.626 368.479 150.122 370.902 151.145C373.326 152.167 375.928 152.694 378.558 152.694C381.187 152.694 383.79 152.167 386.213 151.145C388.636 150.122 390.831 148.626 392.668 146.742C394.504 144.859 395.945 142.627 396.906 140.178C397.867 137.728 398.329 135.111 398.263 132.48C398.263 121.59 389.421 115.503 378.564 114.867C361.756 113.87 358.852 121.59 358.852 132.48Z" stroke="#9075D9" stroke-linecap="round" stroke-linejoin="round"/>
<path d="M325.448 127.176C325.448 137.057 332.154 145.077 340.445 145.077C348.735 145.077 355.441 137.057 355.441 127.176C355.441 117.295 348.711 111.772 340.445 111.195C327.656 110.295 325.448 117.295 325.448 127.176V127.176Z" stroke="#9075D9" stroke-linecap="round" stroke-linejoin="round"/>
<path d="M356.647 124.587C356.647 124.587 356.948 135.189 355.448 135.069C353.948 134.949 350.853 132.392 349.617 134.505C348.525 136.366 353.708 140.208 353.708 140.208" fill="#FDDFC5"/>
<path d="M356.647 124.587C356.647 124.587 356.948 135.189 355.448 135.069C353.948 134.949 350.853 132.392 349.617 134.505C348.525 136.366 353.708 140.208 353.708 140.208" stroke="#DD837F" stroke-miterlimit="10" stroke-linecap="round"/>
<path d="M359.309 126.286C359.309 126.286 358.001 122.935 355.445 125.085" stroke="#9075D9" stroke-linecap="round" stroke-linejoin="round"/>
<path d="M422.844 279.627C425.1 280.119 428.027 274.091 425.484 272.879C422.94 271.667 419.017 278.799 422.844 279.627Z" fill="#FFA49F"/>
<path d="M420.349 277.129C422.605 277.622 425.531 271.582 422.977 270.37C420.421 269.157 416.51 276.301 420.349 277.129Z" fill="#FFA49F"/>
<path d="M416.081 260.309C417.172 263.143 420.64 265.94 423.399 267.381C421.9 273.457 426.471 277.731 424.251 279.279C422.511 280.48 420.532 278.787 420.532 278.787C420.177 279.117 419.752 279.361 419.287 279.498C418.823 279.635 418.333 279.663 417.857 279.58C415.961 279.447 414.869 277.178 414.869 277.178C413.759 277.426 412.597 277.256 411.606 276.698C410.262 275.966 409.674 272.868 409.674 272.868C409.674 272.868 406.795 271.295 408.018 269.002C409.027 267.116 414.042 262.506 416.081 260.309Z" fill="#FDDFC5"/>
</g>
<defs>
<clipPath id="clip0">
<rect width="569" height="484" fill="white" transform="matrix(-1 0 0 1 569 0)"/>
</clipPath>
</defs>
</svg>
