<svg xmlns="http://www.w3.org/2000/svg" width="632" height="217" viewBox="0 0 632 217" fill="none">
    <path d="M152.818 137.375L143.666 38.4248L75.4441 28.25L9.15206 38.4248L0 137.375H0.425679C1.61005e-06 138.927 0 140.48 0 142.032C0 164.15 34.267 182 76.409 182C118.551 182 152.818 164.15 152.818 142.032C152.818 140.48 152.605 138.927 152.392 137.375H152.818Z" fill="#FF97C9"/>
    <path d="M632 172.375L622.848 73.4248L554.626 63.25L488.334 73.4248L479.182 172.375H479.607C479.182 173.927 479.182 175.48 479.182 177.032C479.182 199.15 513.449 217 555.591 217C597.733 217 632 199.15 632 177.032C632 175.48 631.787 173.927 631.574 172.375H632Z" fill="#88D6E8"/>
    <path d="M405.539 128.958L394.814 11.344L314.223 2.625L237.186 11.344L226.461 128.958H226.96C226.461 130.803 226.461 132.648 226.461 134.493C226.461 160.783 266.616 182 316 182C365.383 182 405.539 160.783 405.539 134.493C405.539 132.648 405.289 130.803 405.04 128.958H405.539Z" fill="#9E86DE"/>
    <path d="M394.814 10.8033C394.814 16.5946 359.647 21.2277 316 21.2277C272.602 21.2277 237.186 16.5946 237.186 10.8033C237.186 5.01196 272.353 0.378906 316 0.378906C359.647 0.378906 394.814 5.01196 394.814 10.8033Z" fill="#9075D9"/>
    <path d="M143.668 37.6783C143.668 43.4696 113.658 48.1027 76.4113 48.1027C39.3774 48.1027 9.1543 43.4696 9.1543 37.6783C9.1543 31.887 39.1645 27.2539 76.4113 27.2539C113.658 27.2539 143.668 31.887 143.668 37.6783Z" fill="#FF78B9"/>
    <path d="M622.85 72.6783C622.85 78.4696 592.84 83.1027 555.593 83.1027C518.559 83.1027 488.336 78.4696 488.336 72.6783C488.336 66.887 518.346 62.2539 555.593 62.2539C592.84 62.2539 622.85 66.887 622.85 72.6783Z" fill="#60C8E0"/>
    <path d="M325.866 104.51H319.3V60.9844L306.133 65.8206V59.8901L324.842 52.8652H325.866V104.51Z" fill="white"/>
    <path d="M88.9369 110.335H64.5974V106.942L77.456 92.6547C79.361 90.4946 80.6707 88.7427 81.3853 87.3989C82.1164 86.0382 82.4821 84.635 82.4821 83.1892C82.4821 81.2502 81.8952 79.6599 80.7217 78.4182C79.5482 77.1766 77.9833 76.5558 76.0273 76.5558C73.6799 76.5558 71.8516 77.2276 70.5418 78.5713C69.249 79.898 68.6028 81.752 68.6028 84.1332H63.8828C63.8828 80.7145 64.9801 77.9505 67.1742 75.8414C69.3853 73.7323 72.3362 72.6777 76.0273 72.6777C79.4803 72.6777 82.21 73.5877 84.2169 75.4077C86.2242 77.2106 87.2274 79.6174 87.2274 82.6279C87.2274 86.2848 84.8974 90.6391 80.237 95.6908L70.2867 106.483H88.9369V110.335Z" fill="white"/>
    <path d="M552.641 105.243H555.119C556.674 105.219 557.899 104.81 558.79 104.014C559.681 103.218 560.125 102.142 560.125 100.788C560.125 97.7469 558.611 96.2262 555.582 96.2262C554.155 96.2262 553.015 96.6361 552.16 97.4558C551.318 98.2637 550.895 99.3388 550.895 100.681H547.598C547.598 98.626 548.346 96.9212 549.843 95.5669C551.351 94.2007 553.264 93.5176 555.582 93.5176C558.03 93.5176 559.949 94.165 561.339 95.46C562.729 96.7549 563.422 98.5547 563.422 100.859C563.422 101.988 563.054 103.081 562.318 104.138C561.594 105.196 560.6 105.986 559.341 106.508C560.767 106.96 561.865 107.708 562.637 108.754C563.422 109.799 563.814 111.076 563.814 112.585C563.814 114.914 563.054 116.761 561.533 118.127C560.013 119.493 558.036 120.176 555.6 120.176C553.164 120.176 551.181 119.517 549.648 118.198C548.128 116.88 547.367 115.139 547.367 112.977H550.682C550.682 114.343 551.126 115.436 552.017 116.256C552.908 117.076 554.104 117.486 555.6 117.486C557.191 117.486 558.41 117.07 559.253 116.238C560.095 115.407 560.518 114.213 560.518 112.656C560.518 111.148 560.055 109.989 559.128 109.181C558.2 108.374 556.865 107.958 555.119 107.934H552.641V105.243Z" fill="white"/>
</svg>
